# xmcd CD database file
# Copyright (C) 1993-1998 Ti Kan
#
# Track frame offsets:
#	150
#	16702
#	28705
#	39152
#	55507
#	71975
#	86695
#	98792
#	111935
#	128890
#
# Disc length: 1931 seconds
#
# Revision: 1
# Processed by: cddbd v1.4b41PL1 Copyright (c) Steve Scherf et al.
# Submitted via: CDValet v3.31 - Copyright (c) 1997 Greg Leichner
#
DISCID=7907890a
DTITLE=Mel Cooper - Lomandra
DYEAR=1900
DGENRE=
TTITLE0=My Man Called Me This Morning
TTITLE1=I Never Want to See You Cry
TTITLE2=Weeping Willow Blues
TTITLE3=Lomandra
TTITLE4=Come On In My Kitchen
TTITLE5=Set Me Free
TTITLE6=Do Your Duty
TTITLE7=Kind Hearted Man
TTITLE8=Not  Every Road
TTITLE9=Midnight SpecialE
EXTD=
EXTT0=
EXTT1=
EXTT2=
EXTT3=
EXTT4=
EXTT5=
EXTT6=
EXTT7=
EXTT8=
EXTT9=
PLAYORDER=
